<svg version="1.0" xmlns="http://www.w3.org/2000/svg"
 width="252.000000pt" height="352.000000pt" viewBox="0 0 252.000000 352.000000"
 preserveAspectRatio="xMidYMid meet">

<g transform="translate(0.000000,352.000000) scale(0.100000,-0.100000)"
fill="#078282" stroke="none">
<path d="M160 3077 c-60 -21 -54 -54 36 -215 42 -75 89 -155 103 -177 l26 -40
-5 -421 -5 -421 -27 -39 c-15 -21 -60 -84 -101 -139 -63 -86 -78 -100 -105
-103 -32 -3 -47 -32 -17 -32 20 0 19 -6 -9 -43 -45 -60 -59 -98 -53 -144 4
-37 38 -94 203 -341 l199 -297 5 -208 c5 -205 5 -209 29 -228 22 -18 50 -19
806 -19 756 0 784 1 806 19 23 19 24 25 29 208 l5 188 214 316 c181 268 214
323 218 361 6 47 -8 85 -53 145 -30 40 -30 43 1 43 16 0 25 6 25 15 0 10 -10
15 -33 15 -41 0 -46 5 -173 185 l-99 140 -5 400 -5 400 31 50 c65 105 162 291
168 323 4 24 1 37 -14 52 -20 20 -37 20 -1093 19 -803 0 -1081 -3 -1107 -12z
m2185 -27 c4 -7 -365 -10 -1100 -10 -735 0 -1104 3 -1100 10 4 7 382 10 1100
10 718 0 1096 -3 1100 -10z m5 -49 c0 -13 -169 -313 -186 -331 -13 -13 -127
-15 -888 -18 -480 -1 -890 1 -912 6 -38 7 -41 12 -131 167 -51 88 -92 166 -93
173 0 9 227 12 1105 12 648 0 1105 -4 1105 -9z m-210 -381 c13 -8 15 -61 18
-356 2 -191 0 -354 -3 -362 -4 -10 -28 17 -75 83 l-70 99 0 178 c0 105 -4 187
-10 199 -10 19 -29 19 -755 19 -726 0 -745 0 -755 -19 -6 -12 -10 -101 -10
-219 l0 -199 -67 -96 c-38 -53 -71 -97 -75 -97 -12 0 -10 724 2 754 l10 26
887 0 c542 0 894 -4 903 -10z m-162 -172 c14 -14 17 -318 4 -318 -5 0 -21 14
-37 30 -53 55 -132 63 -203 20 -39 -24 -62 -73 -62 -130 l0 -40 -420 0 -420 0
0 48 c0 62 -28 108 -83 132 -81 37 -155 17 -221 -62 l-36 -43 0 176 c0 123 4
179 12 187 17 17 1449 17 1466 0z m-292 -476 c6 -4 59 -72 119 -152 59 -80
112 -151 118 -157 7 -10 -126 -13 -662 -13 l-671 0 90 123 c50 67 106 141 126
165 l35 42 417 0 c229 0 422 -4 428 -8z m291 -398 c18 -22 33 -42 33 -46 0 -5
-337 -8 -750 -8 -412 0 -750 3 -750 6 0 3 14 24 31 45 l30 39 257 2 c141 2
450 2 687 2 l429 -2 33 -38z m-1257 -384 l0 -300 70 0 69 0 -7 33 c-4 17 -7
73 -7 122 0 79 4 98 31 155 41 88 109 152 212 202 69 33 82 44 82 64 0 23 2
24 74 24 73 0 75 0 78 -26 2 -15 10 -30 18 -35 8 -4 45 -21 82 -38 84 -40 167
-126 199 -208 24 -62 32 -182 16 -255 l-8 -38 71 0 70 0 0 300 0 300 120 0
c71 0 130 -5 145 -12 15 -7 49 -45 76 -86 l50 -74 -38 -55 -38 -56 -5 82 c-8
112 -12 115 -150 119 -158 5 -174 -13 -19 -22 68 -4 128 -11 134 -17 5 -5 10
-54 10 -108 l0 -98 -93 -141 c-52 -77 -101 -143 -109 -146 -8 -3 -60 -6 -116
-6 -56 0 -107 -4 -113 -8 -6 -4 -24 -28 -42 -53 -126 -185 -384 -236 -564
-110 -29 20 -67 56 -86 81 -72 95 -62 90 -165 90 -60 0 -99 4 -109 13 -8 6
-49 62 -90 122 -140 205 -145 220 -108 318 19 50 24 55 58 61 20 3 71 6 112 6
54 0 71 3 63 11 -7 7 -51 10 -127 8 -138 -5 -145 -9 -153 -98 l-6 -61 -24 35
-24 35 22 33 c13 17 40 56 61 85 l39 52 119 0 120 0 0 -300z m-261 -656 c16
-61 63 -118 118 -145 l48 -24 620 0 620 0 48 24 c54 26 91 69 116 137 l18 46
6 -53 c4 -29 4 -100 0 -157 -5 -89 -9 -105 -27 -118 -30 -21 -1542 -21 -1572
0 -17 13 -19 29 -21 198 -2 178 0 186 26 92z"/>
<path d="M210 2965 c0 -14 135 -251 149 -262 22 -19 1774 -19 1789 0 16 19
142 249 142 259 0 4 -468 8 -1040 8 -572 0 -1040 -2 -1040 -5z m2050 -19 c0
-11 -124 -222 -134 -228 -6 -4 -401 -8 -877 -8 -812 0 -867 1 -881 18 -18 21
-118 202 -118 213 0 5 448 9 1005 9 553 0 1005 -2 1005 -4z"/>
<path d="M1028 1949 c-15 -9 -18 -26 -18 -119 0 -59 3 -115 6 -124 5 -14 36
-16 240 -16 l234 0 6 25 c11 43 0 211 -15 228 -12 15 -40 17 -225 17 -125 0
-218 -5 -228 -11z m441 -26 c12 -22 1 -206 -13 -215 -13 -9 -388 -11 -410 -2
-13 5 -16 25 -16 113 0 59 3 111 7 114 3 4 100 7 214 7 186 0 209 -2 218 -17z"/>
<path d="M1145 1407 c-148 -50 -247 -160 -275 -307 -31 -162 60 -334 218 -412
61 -30 74 -33 162 -33 86 0 101 3 162 32 301 142 300 557 -1 700 -67 31 -201
41 -266 20z"/>
<path d="M445 145 c-29 -28 -34 -89 -11 -121 14 -18 36 -19 804 -22 787 -2
789 -2 815 19 22 16 27 29 27 62 0 23 -4 47 -8 53 -22 33 -48 34 -827 34
l-776 0 -24 -25z m1589 -5 c23 -8 26 -15 26 -54 0 -35 -5 -48 -19 -56 -13 -7
-278 -10 -788 -10 -679 0 -771 2 -791 16 -27 18 -30 69 -5 96 15 17 53 18 784
18 475 0 777 -4 793 -10z"/>
</g>
</svg>
